<?xml version="1.0" encoding="utf-8"?>
<!-- Generator: Adobe Illustrator 23.0.5, SVG Export Plug-In . SVG Version: 6.00 Build 0)  -->
<svg version="1.1" id="Layer_1" xmlns="http://www.w3.org/2000/svg" xmlns:xlink="http://www.w3.org/1999/xlink" x="0px" y="0px"
	 viewBox="0 0 345.7 352" style="enable-background:new 0 0 345.7 352;" xml:space="preserve">
<style type="text/css">
	.st0{fill:#CE0504;}
</style>
<path class="st0" d="M179.6,316.2c-2.6,0-4.8,2.1-4.8,4.8s2.1,4.8,4.8,4.8c2.6,0,4.8-2.1,4.8-4.8S182.2,316.2,179.6,316.2z
	 M179.6,324.2c-1.8,0-3.3-1.5-3.3-3.3s1.5-3.3,3.3-3.3c1.8,0,3.3,1.5,3.3,3.3S181.4,324.2,179.6,324.2z"/>
<path class="st0" d="M185.9,259.4c-3.9,0-7.1,3.2-7.1,7.1c0,3.9,3.2,7.1,7.1,7.1c3.9,0,7.1-3.2,7.1-7.1
	C193.1,262.6,189.9,259.4,185.9,259.4z M185.9,271.4c-2.7,0-4.9-2.2-4.9-4.9c0-2.7,2.2-4.9,4.9-4.9c2.7,0,4.9,2.2,4.9,4.9
	C190.8,269.2,188.6,271.4,185.9,271.4z"/>
<path class="st0" d="M238.6,264.2c-2.6,0-4.8,2.1-4.8,4.8s2.1,4.8,4.8,4.8s4.8-2.1,4.8-4.8S241.2,264.2,238.6,264.2z M238.6,272.2
	c-1.8,0-3.3-1.5-3.3-3.3s1.5-3.3,3.3-3.3s3.3,1.5,3.3,3.3S240.4,272.2,238.6,272.2z"/>
<path class="st0" d="M139.6,256.2c-2.6,0-4.8,2.1-4.8,4.8c0,2.6,2.1,4.8,4.8,4.8s4.8-2.1,4.8-4.8
	C144.3,258.3,142.2,256.2,139.6,256.2z M139.6,264.2c-1.8,0-3.3-1.5-3.3-3.3c0-1.8,1.5-3.3,3.3-3.3s3.3,1.5,3.3,3.3
	C142.8,262.7,141.4,264.2,139.6,264.2z"/>
<path class="st0" d="M262.6,216.2c-2.6,0-4.8,2.1-4.8,4.8s2.1,4.8,4.8,4.8s4.8-2.1,4.8-4.8S265.2,216.2,262.6,216.2z M262.6,224.2
	c-1.8,0-3.3-1.5-3.3-3.3s1.5-3.3,3.3-3.3s3.3,1.5,3.3,3.3S264.4,224.2,262.6,224.2z"/>
<path class="st0" d="M193.6,212.2c-2.6,0-4.8,2.1-4.8,4.8s2.1,4.8,4.8,4.8s4.8-2.1,4.8-4.8S196.2,212.2,193.6,212.2z M193.6,220.2
	c-1.8,0-3.3-1.5-3.3-3.3s1.5-3.3,3.3-3.3s3.3,1.5,3.3,3.3S195.4,220.2,193.6,220.2z"/>
<path class="st0" d="M94.4,208.2c-3.7,0-6.6,3-6.6,6.6c0,3.7,3,6.6,6.6,6.6c3.7,0,6.6-3,6.6-6.6C101.1,211.1,98.1,208.2,94.4,208.2z
	 M94.4,219.3c-2.5,0-4.5-2-4.5-4.5c0-2.5,2-4.5,4.5-4.5c2.5,0,4.5,2,4.5,4.5C99,217.3,97,219.3,94.4,219.3z"/>
<path class="st0" d="M283.2,70.4c-3.7,0-6.6,3-6.6,6.6c0,3.7,3,6.6,6.6,6.6c3.7,0,6.6-3,6.6-6.6C289.9,73.4,286.9,70.4,283.2,70.4z
	 M283.2,81.6c-2.5,0-4.5-2-4.5-4.5c0-2.5,2-4.5,4.5-4.5s4.5,2,4.5,4.5C287.8,79.6,285.7,81.6,283.2,81.6z"/>
<path class="st0" d="M262.6,169.7c-1.8,0-3.3,1.5-3.3,3.3s1.5,3.3,3.3,3.3s3.3-1.5,3.3-3.3S264.4,169.7,262.6,169.7z M262.6,175.1
	c-1.2,0-2.2-1-2.2-2.2s1-2.2,2.2-2.2s2.2,1,2.2,2.2S263.8,175.1,262.6,175.1z"/>
<path class="st0" d="M65.2,186.7c-1.8,0-3.3,1.5-3.3,3.3s1.5,3.3,3.3,3.3c1.8,0,3.3-1.5,3.3-3.3S67,186.7,65.2,186.7z M65.2,192.1
	c-1.2,0-2.2-1-2.2-2.2s1-2.2,2.2-2.2s2.2,1,2.2,2.2S66.4,192.1,65.2,192.1z"/>
<path class="st0" d="M193.7,168.2c-7.1,0-12.9,5.8-12.9,12.9c0,7.1,5.8,12.9,12.9,12.9c7.1,0,12.9-5.8,12.9-12.9
	C206.6,174,200.8,168.2,193.7,168.2z M193.7,189.9c-4.9,0-8.8-4-8.8-8.8c0-4.9,4-8.8,8.8-8.8s8.8,4,8.8,8.8
	C202.6,185.9,198.6,189.9,193.7,189.9z"/>
<path class="st0" d="M65.2,122.9c-7.1,0-12.9,5.8-12.9,12.9c0,7.1,5.8,12.9,12.9,12.9s12.9-5.8,12.9-12.9
	C78.1,128.7,72.3,122.9,65.2,122.9z M65.2,144.6c-4.9,0-8.8-4-8.8-8.8s4-8.8,8.8-8.8s8.8,4,8.8,8.8S70.1,144.6,65.2,144.6z"/>
<path class="st0" d="M50.2,162.9c-1.3,0-2.4,1.1-2.4,2.4c0,1.3,1.1,2.4,2.4,2.4s2.4-1.1,2.4-2.4C52.6,164,51.5,162.9,50.2,162.9z
	 M50.2,166.9c-0.9,0-1.6-0.7-1.6-1.6c0-0.9,0.7-1.6,1.6-1.6s1.6,0.7,1.6,1.6C51.8,166.2,51.1,166.9,50.2,166.9z"/>
<path class="st0" d="M209,153.6c-1.3,0-2.4,1.1-2.4,2.4c0,1.3,1.1,2.4,2.4,2.4s2.4-1.1,2.4-2.4C211.4,154.7,210.3,153.6,209,153.6z
	 M209,157.6c-0.9,0-1.6-0.7-1.6-1.6c0-0.9,0.7-1.6,1.6-1.6s1.6,0.7,1.6,1.6C210.6,156.9,209.9,157.6,209,157.6z"/>
<path class="st0" d="M155.1,108.7c-1.3,0-2.4,1.1-2.4,2.4c0,1.3,1.1,2.4,2.4,2.4s2.4-1.1,2.4-2.4
	C157.4,109.7,156.4,108.7,155.1,108.7z M155.1,112.7c-0.9,0-1.6-0.7-1.6-1.6c0-0.9,0.7-1.6,1.6-1.6s1.6,0.7,1.6,1.6
	C156.7,112,156,112.7,155.1,112.7z"/>
<path class="st0" d="M104.3,69.7c-1.3,0-2.4,1.1-2.4,2.4c0,1.3,1.1,2.4,2.4,2.4s2.4-1.1,2.4-2.4C106.7,70.7,105.6,69.7,104.3,69.7z
	 M104.3,73.7c-0.9,0-1.6-0.7-1.6-1.6c0-0.9,0.7-1.6,1.6-1.6s1.6,0.7,1.6,1.6C106,73,105.2,73.7,104.3,73.7z"/>
<path class="st0" d="M101.1,139.2c-2.6,0-4.8,2.1-4.8,4.8c0,2.6,2.1,4.8,4.8,4.8s4.8-2.1,4.8-4.8
	C105.8,141.3,103.7,139.2,101.1,139.2z M101.1,147.2c-1.8,0-3.3-1.5-3.3-3.3c0-1.8,1.5-3.3,3.3-3.3s3.3,1.5,3.3,3.3
	C104.3,145.7,102.9,147.2,101.1,147.2z"/>
<path class="st0" d="M175.6,131.2c-2.6,0-4.8,2.1-4.8,4.8s2.1,4.8,4.8,4.8c2.6,0,4.8-2.1,4.8-4.8S178.2,131.2,175.6,131.2z
	 M175.6,139.2c-1.8,0-3.3-1.5-3.3-3.3s1.5-3.3,3.3-3.3c1.8,0,3.3,1.5,3.3,3.3S177.4,139.2,175.6,139.2z"/>
<path class="st0" d="M230.6,123.2c-2.6,0-4.8,2.1-4.8,4.8s2.1,4.8,4.8,4.8c2.6,0,4.8-2.1,4.8-4.8S233.2,123.2,230.6,123.2z
	 M230.6,131.2c-1.8,0-3.3-1.5-3.3-3.3s1.5-3.3,3.3-3.3c1.8,0,3.3,1.5,3.3,3.3S232.4,131.2,230.6,131.2z"/>
<path class="st0" d="M52.6,99.2c-2.6,0-4.8,2.1-4.8,4.8c0,2.6,2.1,4.8,4.8,4.8s4.8-2.1,4.8-4.8C57.3,101.3,55.2,99.2,52.6,99.2z
	 M52.6,107.2c-1.8,0-3.3-1.5-3.3-3.3c0-1.8,1.5-3.3,3.3-3.3s3.3,1.5,3.3,3.3C55.8,105.7,54.4,107.2,52.6,107.2z"/>
<path class="st0" d="M246.6,91.2c-2.6,0-4.8,2.1-4.8,4.8s2.1,4.8,4.8,4.8s4.8-2.1,4.8-4.8S249.2,91.2,246.6,91.2z M246.6,99.2
	c-1.8,0-3.3-1.5-3.3-3.3s1.5-3.3,3.3-3.3s3.3,1.5,3.3,3.3S248.4,99.2,246.6,99.2z"/>
<path class="st0" d="M133.2,91.2c-3.5,0-6.4,2.9-6.4,6.4s2.9,6.4,6.4,6.4s6.4-2.9,6.4-6.4S136.7,91.2,133.2,91.2z M133.2,101.9
	c-2.4,0-4.4-2-4.4-4.4s2-4.4,4.4-4.4c2.4,0,4.4,2,4.4,4.4S135.6,101.9,133.2,101.9z"/>
<path class="st0" d="M189.6,52.2c-4.8,0-8.8,3.9-8.8,8.8s3.9,8.8,8.8,8.8c4.8,0,8.8-3.9,8.8-8.8S194.4,52.2,189.6,52.2z M189.6,66.9
	c-3.3,0-6-2.7-6-6s2.7-6,6-6c3.3,0,6,2.7,6,6S192.9,66.9,189.6,66.9z"/>
<path class="st0" d="M238.6,34.2c-2.6,0-4.8,2.1-4.8,4.8s2.1,4.8,4.8,4.8s4.8-2.1,4.8-4.8S241.2,34.2,238.6,34.2z M238.6,42.2
	c-1.8,0-3.3-1.5-3.3-3.3s1.5-3.3,3.3-3.3s3.3,1.5,3.3,3.3S240.4,42.2,238.6,42.2z"/>
<circle class="st0" cx="268" cy="-412.7" r="4.8"/>
<circle class="st0" cx="268" cy="-412.7" r="3.3"/>
<g>
	<path class="st0" d="M134.8,182.5c-1.7,0-3.1,1.4-3.1,3.1c0,1.7,1.4,3.1,3.1,3.1c1.7,0,3.1-1.4,3.1-3.1
		C137.9,183.8,136.5,182.5,134.8,182.5z M134.8,187.7c-1.2,0-2.1-0.9-2.1-2.1c0-1.2,0.9-2.1,2.1-2.1c1.2,0,2.1,0.9,2.1,2.1
		C136.9,186.7,136,187.7,134.8,187.7z"/>
	<polygon class="st0" points="136.3,183 133.3,183 131.8,185.5 133.3,188.1 136.3,188.1 137.8,185.5 	"/>
</g>
<g>
	<path class="st0" d="M147.4,63.8c-1.7,0-3.1,1.4-3.1,3.1c0,1.7,1.4,3.1,3.1,3.1s3.1-1.4,3.1-3.1C150.5,65.2,149.1,63.8,147.4,63.8z
		 M147.4,69c-1.2,0-2.1-0.9-2.1-2.1c0-1.2,0.9-2.1,2.1-2.1s2.1,0.9,2.1,2.1C149.5,68.1,148.6,69,147.4,69z"/>
	<polygon class="st0" points="148.9,64.3 145.9,64.3 144.4,66.9 145.9,69.5 148.9,69.5 150.4,66.9 	"/>
</g>
<g>
	<path class="st0" d="M256.2,129.6c-1.7,0-3.1,1.4-3.1,3.1c0,1.7,1.4,3.1,3.1,3.1c1.7,0,3.1-1.4,3.1-3.1
		C259.3,131,257.9,129.6,256.2,129.6z M256.2,134.8c-1.2,0-2.1-0.9-2.1-2.1c0-1.2,0.9-2.1,2.1-2.1c1.2,0,2.1,0.9,2.1,2.1
		C258.3,133.8,257.4,134.8,256.2,134.8z"/>
	<polygon class="st0" points="257.7,130.1 254.7,130.1 253.3,132.7 254.7,135.3 257.7,135.3 259.2,132.7 	"/>
</g>
<g>
	<path class="st0" d="M123.7,121.6c-1.7,0-3.1,1.4-3.1,3.1c0,1.7,1.4,3.1,3.1,3.1c1.7,0,3.1-1.4,3.1-3.1
		C126.8,123,125.4,121.6,123.7,121.6z M123.7,126.8c-1.2,0-2.1-0.9-2.1-2.1c0-1.2,0.9-2.1,2.1-2.1c1.2,0,2.1,0.9,2.1,2.1
		C125.8,125.8,124.9,126.8,123.7,126.8z"/>
	<polygon class="st0" points="125.2,122.1 122.3,122.1 120.8,124.7 122.3,127.2 125.2,127.2 126.7,124.7 	"/>
</g>
<g>
	<path class="st0" d="M229.7,224.2c-3,0-5.5,2.5-5.5,5.5c0,3,2.5,5.5,5.5,5.5s5.5-2.5,5.5-5.5C235.3,226.6,232.8,224.2,229.7,224.2z
		 M229.7,233.5c-2.1,0-3.8-1.7-3.8-3.8c0-2.1,1.7-3.8,3.8-3.8s3.8,1.7,3.8,3.8C233.5,231.8,231.8,233.5,229.7,233.5z"/>
	<polygon class="st0" points="232.4,225.1 227.1,225.1 224.4,229.7 227.1,234.3 232.4,234.3 235.1,229.7 	"/>
</g>
<g>
	<path class="st0" d="M201.4,97.6c-1.7,0-3.1,1.4-3.1,3.1c0,1.7,1.4,3.1,3.1,3.1s3.1-1.4,3.1-3.1C204.5,99,203.1,97.6,201.4,97.6z
		 M201.4,102.8c-1.2,0-2.1-0.9-2.1-2.1c0-1.2,0.9-2.1,2.1-2.1s2.1,0.9,2.1,2.1C203.5,101.8,202.6,102.8,201.4,102.8z"/>
	<polygon class="st0" points="202.9,98.1 199.9,98.1 198.4,100.7 199.9,103.2 202.9,103.2 204.4,100.7 	"/>
</g>
</svg>
