<?xml version="1.0" encoding="utf-8"?>
<!-- Generator: Adobe Illustrator 19.1.1, SVG Export Plug-In . SVG Version: 6.00 Build 0)  -->
<svg version="1.1" id="Layer_1" xmlns="http://www.w3.org/2000/svg" xmlns:xlink="http://www.w3.org/1999/xlink" x="0px" y="0px"
	 viewBox="0 0 876 225" style="enable-background:new 0 0 876 225;" xml:space="preserve">
<style type="text/css">
	.st0{fill:#111111;}
	.st1{fill:url(#SVGID_1_);}
	.st2{fill:url(#SVGID_2_);}
	.st3{fill:url(#SVGID_3_);}
	.st4{fill:url(#SVGID_4_);}
	.st5{fill:url(#SVGID_5_);}
	.st6{fill:url(#SVGID_6_);}
	.st7{fill:url(#SVGID_7_);}
	.st8{fill:url(#SVGID_8_);}
	.st9{fill:url(#SVGID_9_);}
	.st10{fill:url(#SVGID_10_);}
	.st11{fill:url(#SVGID_11_);}
</style>
<path class="st0" d="M372.1,98.3h11l15.9,36.7l15.9-36.7H426v48.3h-9.8v-30.2l-13.3,30.2h-7.8l-13.2-30.3v30.3h-9.8V98.3z"/>
<path class="st0" d="M441.2,98c1.5,0,2.8,0.6,4,1.7c1.1,1,1.6,2.3,1.6,3.8c0,1.6-0.6,2.9-1.7,4c-1.1,1.1-2.4,1.6-3.9,1.6
	c-1.6,0-2.9-0.5-4-1.6c-1.1-1.1-1.6-2.4-1.6-4c0-1.5,0.5-2.8,1.6-3.9C438.3,98.6,439.6,98,441.2,98z M436.5,112.3h9.4v34.4h-9.4
	V112.3z"/>
<path class="st0" d="M474.3,111.4c7.3,0,12.8,2.8,16.5,8.3l-8.2,3.9c-1.7-3.8-4.4-5.8-8.2-5.8c-2.7,0-5,1.1-6.7,3.3
	c-1.7,2.2-2.6,5-2.6,8.4c0,3.4,0.9,6.2,2.6,8.4c1.7,2.2,4,3.3,6.7,3.3c3.8,0,6.6-1.9,8.2-5.8l8.2,3.9c-3.6,5.5-9.1,8.2-16.5,8.2
	c-5.6,0-10.2-1.7-13.8-5.1c-3.6-3.4-5.5-7.7-5.5-12.9s1.8-9.5,5.5-13C464.1,113.1,468.7,111.4,474.3,111.4z"/>
<path class="st0" d="M519.3,111.4v8.5c-1.5-0.9-3.2-1.3-5.2-1.3s-3.6,0.6-4.8,1.7c-1.2,1.1-1.7,2.7-1.7,4.6v21.7h-9.3v-34.4h9.3v4.5
	C510.7,113.3,514.6,111.5,519.3,111.4z"/>
<path class="st0" d="M557.6,116.6c3.6,3.4,5.4,7.7,5.4,12.9c0,5.2-1.8,9.5-5.5,12.9c-3.7,3.4-8.3,5.1-13.8,5.1
	c-5.6,0-10.2-1.7-13.8-5.1c-3.7-3.4-5.5-7.7-5.5-12.9s1.8-9.5,5.5-13c3.7-3.4,8.3-5.2,13.8-5.2C549.2,111.4,553.9,113.1,557.6,116.6
	z M537,121.2c-1.7,2.2-2.6,4.9-2.6,8.3c0,3.4,0.9,6.2,2.6,8.4c1.7,2.2,4,3.2,6.7,3.2c2.7,0,5-1.1,6.7-3.3c1.7-2.2,2.6-5,2.6-8.4
	c0-3.4-0.9-6.2-2.6-8.4c-1.7-2.2-4-3.3-6.7-3.3C540.9,117.9,538.7,119,537,121.2z"/>
<linearGradient id="SVGID_1_" gradientUnits="userSpaceOnUse" x1="598.4013" y1="56.3981" x2="583.231" y2="246.0285">
	<stop  offset="0" style="stop-color:#FF0401"/>
	<stop  offset="0.3011" style="stop-color:#B20706"/>
	<stop  offset="0.6882" style="stop-color:#640807"/>
	<stop  offset="1" style="stop-color:#260302"/>
</linearGradient>
<path class="st1" d="M571.2,98.3h21.6c6.9,0,12.6,2.2,17.2,6.7c4.6,4.5,6.9,10.3,6.9,17.4c0,7.1-2.3,13-6.9,17.4
	c-4.6,4.5-10.4,6.7-17.2,6.7h-21.6V98.3z M581,106.5v31.9h9.4c4.5,0,8.3-1.5,11.4-4.4c3.1-2.9,4.6-6.8,4.6-11.5
	c0-4.8-1.5-8.6-4.6-11.6c-3.1-2.9-6.9-4.4-11.4-4.4H581z"/>
<linearGradient id="SVGID_2_" gradientUnits="userSpaceOnUse" x1="640.0994" y1="59.7332" x2="624.9288" y2="249.366">
	<stop  offset="0" style="stop-color:#FF0401"/>
	<stop  offset="0.3011" style="stop-color:#B20706"/>
	<stop  offset="0.6882" style="stop-color:#640807"/>
	<stop  offset="1" style="stop-color:#260302"/>
</linearGradient>
<path class="st2" d="M646.1,111.4v8.5c-1.5-0.9-3.2-1.3-5.2-1.3c-2,0-3.6,0.6-4.8,1.7c-1.2,1.1-1.7,2.7-1.7,4.6v21.7h-9.3v-34.4h9.3
	v4.5C637.5,113.3,641.4,111.5,646.1,111.4z"/>
<linearGradient id="SVGID_3_" gradientUnits="userSpaceOnUse" x1="675.6398" y1="62.5783" x2="660.4695" y2="252.2075">
	<stop  offset="0" style="stop-color:#FF0401"/>
	<stop  offset="0.3011" style="stop-color:#B20706"/>
	<stop  offset="0.6882" style="stop-color:#640807"/>
	<stop  offset="1" style="stop-color:#260302"/>
</linearGradient>
<path class="st3" d="M684.2,116.5c3.5,3.5,5.2,7.8,5.2,13c0,0.5-0.1,1.5-0.2,2.8h-27.8c0.4,2.7,1.6,4.8,3.4,6.4
	c1.8,1.6,4.1,2.4,6.8,2.4c3.5,0,6.5-1.4,8.9-4.3l7.5,3.5c-1.7,2.2-4.1,4-7,5.3c-2.9,1.3-6.1,1.9-9.4,1.9c-5.9,0-10.8-1.7-14.7-5.1
	c-3.8-3.4-5.7-7.7-5.7-12.9c0-5.2,1.8-9.5,5.5-13c3.6-3.5,8.3-5.2,13.9-5.2C676.2,111.4,680.8,113.1,684.2,116.5z M664.6,120.3
	c-1.6,1.6-2.6,3.7-3.2,6.3h18.2c-0.5-2.6-1.5-4.7-3.1-6.3c-1.6-1.6-3.6-2.4-6-2.4C668.1,117.9,666.2,118.7,664.6,120.3z"/>
<linearGradient id="SVGID_4_" gradientUnits="userSpaceOnUse" x1="721.201" y1="66.2213" x2="706.0304" y2="255.8545">
	<stop  offset="0" style="stop-color:#FF0401"/>
	<stop  offset="0.3011" style="stop-color:#B20706"/>
	<stop  offset="0.6882" style="stop-color:#640807"/>
	<stop  offset="1" style="stop-color:#260302"/>
</linearGradient>
<path class="st4" d="M734.8,112.3v34.4h-9.4v-4.6c-3.5,3.6-7.6,5.4-12.5,5.4c-4.8,0-8.8-1.7-12-5.1c-3.1-3.4-4.7-7.7-4.7-12.9
	s1.6-9.5,4.7-13c3.1-3.4,7.1-5.1,12-5.1c4.8,0,9,1.8,12.5,5.4v-4.5H734.8z M709,121.2c-1.9,2.2-2.8,4.9-2.8,8.3
	c0,3.4,0.9,6.2,2.8,8.3c1.8,2.1,4.2,3.2,7.1,3.2c2.9,0,5.3-1.1,7.1-3.2c1.8-2.1,2.8-4.9,2.8-8.3c0-3.4-0.9-6.2-2.8-8.4
	c-1.8-2.2-4.2-3.3-7.1-3.3C713.1,117.9,710.8,119,709,121.2z"/>
<linearGradient id="SVGID_5_" gradientUnits="userSpaceOnUse" x1="777.1624" y1="70.698" x2="761.9918" y2="260.331">
	<stop  offset="0" style="stop-color:#FF0401"/>
	<stop  offset="0.3011" style="stop-color:#B20706"/>
	<stop  offset="0.6882" style="stop-color:#640807"/>
	<stop  offset="1" style="stop-color:#260302"/>
</linearGradient>
<path class="st5" d="M764.8,111.4c5.2,0,8.9,2.2,11,6.6c3.7-4.4,7.8-6.6,12.5-6.6c3.7,0,6.7,1.2,9,3.7c2.2,2.5,3.4,5.8,3.4,9.9v21.7
	h-9.4v-21.7c0-2.1-0.5-3.8-1.6-5.1c-1.1-1.3-2.6-2-4.4-2c-2.5,0.1-4.4,1-5.8,2.7c-1.4,1.7-2.1,3.8-2.1,6.1v20h-9.4v-21.7
	c0-2.1-0.5-3.8-1.6-5.1c-1.1-1.3-2.6-2-4.4-2c-2.5,0.1-4.4,1-5.8,2.7c-1.4,1.7-2.1,3.8-2.1,6.1v20h-9.4v-34.4h9.4v4.5
	C757,113.2,760.6,111.4,764.8,111.4z"/>
<linearGradient id="SVGID_6_" gradientUnits="userSpaceOnUse" x1="818.5815" y1="74.0115" x2="803.4108" y2="263.6461">
	<stop  offset="0" style="stop-color:#FF0401"/>
	<stop  offset="0.3011" style="stop-color:#B20706"/>
	<stop  offset="0.6882" style="stop-color:#640807"/>
	<stop  offset="1" style="stop-color:#260302"/>
</linearGradient>
<path class="st6" d="M809.8,98.3h9.8v48.3h-9.8V98.3z"/>
<linearGradient id="SVGID_7_" gradientUnits="userSpaceOnUse" x1="848.792" y1="76.4288" x2="833.6213" y2="266.0623">
	<stop  offset="0" style="stop-color:#FF0401"/>
	<stop  offset="0.3011" style="stop-color:#B20706"/>
	<stop  offset="0.6882" style="stop-color:#640807"/>
	<stop  offset="1" style="stop-color:#260302"/>
</linearGradient>
<path class="st7" d="M827.1,98.3h39.2v8.1h-14.7v40.1h-9.9v-40.1h-14.6V98.3z"/>
<path class="st0" d="M118.8,117.5h17.7v57.7l-17.7,0.5V117.5z"/>
<linearGradient id="SVGID_8_" gradientUnits="userSpaceOnUse" x1="133.5383" y1="101.4561" x2="118.958" y2="116.0357">
	<stop  offset="0" style="stop-color:#FF0401"/>
	<stop  offset="0.3011" style="stop-color:#B20706"/>
	<stop  offset="0.6882" style="stop-color:#640807"/>
	<stop  offset="1" style="stop-color:#260302"/>
</linearGradient>
<path class="st8" d="M118.8,100.9h17.7v12.9l-17.7,0.1V100.9z"/>
<path class="st0" d="M118.5,75.1h70.8v12.8h-26.6V151h-17.8V87.9h-26.4V75.1z"/>
<g>
	<path d="M255.6,175.7c117.2-54.4,4.8-122.7,13.1-121.7C394,114.9,323.4,176.8,255.6,175.7z"/>
	<path d="M157.7,191.8C366,107.4,185.4,22,193.6,22.9C394.5,75.1,272.1,185.5,157.7,191.8z"/>
	<path d="M6.4,214.9C351,75.1,124.7,8.6,133,9.6C419.1,49.6,177.4,209,6.4,214.9z"/>
</g>
<linearGradient id="SVGID_9_" gradientUnits="userSpaceOnUse" x1="354.4686" y1="113.9073" x2="204.0272" y2="115.1713">
	<stop  offset="0" style="stop-color:#FF0401"/>
	<stop  offset="0.3011" style="stop-color:#B20706"/>
	<stop  offset="0.6882" style="stop-color:#640807"/>
	<stop  offset="1" style="stop-color:#260302"/>
</linearGradient>
<path class="st9" d="M255.6,175.3c132.2-49,4.8-122.2,13.1-121.2C400.1,114.7,323.4,176.3,255.6,175.3z"/>
<linearGradient id="SVGID_10_" gradientUnits="userSpaceOnUse" x1="338.3469" y1="98.5903" x2="149.9766" y2="108.7037">
	<stop  offset="0" style="stop-color:#FF0401"/>
	<stop  offset="0.3011" style="stop-color:#B20706"/>
	<stop  offset="0.6882" style="stop-color:#640807"/>
	<stop  offset="1" style="stop-color:#260302"/>
</linearGradient>
<path class="st10" d="M157.7,191.8C389.2,113,185.4,21.6,193.6,22.6C403.1,75.1,274.5,192,157.7,191.8z"/>
<linearGradient id="SVGID_11_" gradientUnits="userSpaceOnUse" x1="278.3529" y1="113.3399" x2="47.2106" y2="111.9561">
	<stop  offset="0" style="stop-color:#FF0401"/>
	<stop  offset="0.3011" style="stop-color:#B20706"/>
	<stop  offset="0.6882" style="stop-color:#640807"/>
	<stop  offset="1" style="stop-color:#260302"/>
</linearGradient>
<path class="st11" d="M6.4,214.9C376.8,75.1,124.2,8.3,132.4,9.3C427,50.7,177.4,209,6.4,214.9z"/>
</svg>
